#!OML:ASF H:\Dans Jumps\Project 1\Capture day 1\Session 1\subject.ASF
:FULLY-SPECIFIED
:DEGREES
506
root 0.453724 17.7369 7.15121 8.42384 -1.35424 -1.39764
lowerback -2.13271 -0.166945 -0.411481
upperback 2.97689 -0.259824 1.40294
thorax 4.27189 -0.167175 1.66311
lowerneck -11.2704 0.509639 -1.64894
upperneck 38.1478 0.815747 1.01136
head 15.1937 0.237489 0.849231
rclavicle -1.09332e-015 4.37326e-015
rhumerus -26.5816 -17.8906 -78.9872
rradius 21.8016
rwrist 38.8479
rhand -15.1007 -25.527
rfingers 7.12502
rthumb 11.0677 -55.2152
lclavicle -1.09332e-015 4.37326e-015
lhumerus -22.8039 3.92976 86.3981
lradius 15.8349
lwrist 1.04051
lhand -25.1514 -5.3865
lfingers 7.12502
lthumb 1.36534 24.5889
rfemur -13.1849 -1.21437 19.2992
rtibia 19.3811
rfoot -12.7417 -2.32532
rtoes 11.8217
lfemur -13.111 6.67958 -17.9448
ltibia 17.5064
lfoot -9.97377 3.86227
ltoes 0.976392
507
root 0.454075 17.737 7.14915 8.41771 -1.37196 -1.40824
lowerback -2.13137 -0.16278 -0.399856
upperback 2.96916 -0.254619 1.40165
thorax 4.26284 -0.164106 1.65553
lowerneck -11.2667 0.508325 -1.64709
upperneck 38.156 0.815662 1.00466
head 15.1969 0.236693 0.846113
rclavicle -2.48481e-016 -1.15295e-014
rhumerus -26.5936 -17.8963 -78.9787
rradius 21.8074
rwrist 38.8433
rhand -15.0952 -25.5379
rfingers 7.12502
rthumb 11.073 -55.2258
lclavicle -2.48481e-016 -1.15295e-014
lhumerus -22.8213 3.89654 86.3917
lradius 15.8536
lwrist 1.068
lhand -25.1855 -5.43112
lfingers 7.12502
lthumb 1.33243 24.5445
rfemur -13.1884 -1.21153 19.309
rtibia 19.3806
rfoot -12.736 -2.30626
rtoes 11.813
lfemur -13.1062 6.68017 -17.9345
ltibia 17.5023
lfoot -9.96654 3.87853
ltoes 0.987996
508
root 0.454406 17.7372 7.14708 8.41125 -1.39047 -1.41483
lowerback -2.12932 -0.159706 -0.394089
upperback 2.96249 -0.250653 1.40085
thorax 4.25458 -0.161859 1.65168
lowerneck -11.2728 0.508479 -1.64567
upperneck 38.1705 0.818121 0.997913
head 15.2056 0.236829 0.843591
rclavicle -1.54058e-015 4.96962e-015
rhumerus -26.6 -17.8991 -78.9705
rradius 21.8114
rwrist 38.8401
rhand -15.0917 -25.5505
rfingers 7.12502
rthumb 11.0763 -55.2383
lclavicle -1.54058e-015 4.96962e-015
lhumerus -22.8369 3.87435 86.3824
lradius 15.8676
lwrist 1.08332
lhand -25.2608 -5.53767
lfingers 7.12502
lthumb 1.25971 24.4384
rfemur -13.1918 -1.21067 19.3146
rtibia 19.3797
rfoot -12.7309 -2.28699
rtoes 11.8044
lfemur -13.1017 6.67542 -17.9284
ltibia 17.4991
lfoot -9.95871 3.90055
ltoes 1.00631
509
root 0.454719 17.7372 7.14495 8.40497 -1.4089 -1.41953
lowerback -2.12727 -0.158004 -0.391922
upperback 2.95633 -0.248426 1.4014
thorax 4.24693 -0.160623 1.65114
lowerneck -11.2848 0.509378 -1.64663
upperneck 38.1882 0.822414 0.991281
head 15.2172 0.23737 0.84191
rclavicle 2.98177e-016 6.95746e-015
rhumerus -26.5994 -17.9028 -78.961
rradius 21.8078
rwrist 38.8432
rhand -15.0908 -25.5645
rfingers 7.12502
rthumb 11.0771 -55.2522
lclavicle 2.98177e-016 6.95746e-015
lhumerus -22.8472 3.86476 86.3701
lradius 15.8769
lwrist 1.0973
lhand -25.3206 -5.60904
lfingers 7.12502
lthumb 1.20191 24.3673
rfemur -13.1956 -1.20859 19.3185
rtibia 19.3785
rfoot -12.7258 -2.27148
rtoes 11.7839
lfemur -13.0987 6.66697 -17.924
ltibia 17.4976
lfoot -9.95097 3.92519
ltoes 1.03808
510
root 0.455057 17.7373 7.14293 8.39777 -1.42728 -1.42101
lowerback -2.12706 -0.156797 -0.392812
upperback 2.95094 -0.246743 1.40188
thorax 4.24116 -0.159768 1.65222
lowerneck -11.2994 0.510569 -1.65074
upperneck 38.2082 0.82699 0.987542
head 15.2305 0.237943 0.842106
rclavicle -5.2181e-015 -1.27222e-014
rhumerus -26.5958 -17.9123 -78.9483
rradius 21.7987
rwrist 38.8529
rhand -15.0885 -25.5759
rfingers 7.12502
rthumb 11.0794 -55.2635
lclavicle -5.2181e-015 -1.27222e-014
lhumerus -22.8572 3.86865 86.3542
lradius 15.8835
lwrist 1.10233
lhand -25.3689 -5.66269
lfingers 7.12502
lthumb 1.1553 24.3139
rfemur -13.1992 -1.20848 19.3187
rtibia 19.3795
rfoot -12.724 -2.25663
rtoes 11.7548
lfemur -13.093 6.6581 -17.9231
ltibia 17.4936
lfoot -9.94239 3.94902
ltoes 1.06769
511
root 0.455404 17.7372 7.141 8.38816 -1.44558 -1.41899
lowerback -2.12507 -0.155534 -0.397051
upperback 2.94486 -0.244834 1.40243
thorax 4.23367 -0.158895 1.65526
lowerneck -11.3111 0.512044 -1.65675
upperneck 38.2293 0.83247 0.983883
head 15.2437 0.23864 0.842815
rclavicle -5.66536e-015 6.75868e-015
rhumerus -26.5929 -17.9264 -78.9306
rradius 21.7832
rwrist 38.8701
rhand -15.0863 -25.5808
rfingers 7.12502
rthumb 11.0815 -55.2682
lclavicle -5.66536e-015 6.75868e-015
lhumerus -22.8624 3.88009 86.3357
lradius 15.8797
lwrist 1.09543
lhand -25.388 -5.66749
lfingers 7.12502
lthumb 1.13679 24.3092
rfemur -13.2005 -1.2086 19.315
rtibia 19.3819
rfoot -12.7223 -2.24494
rtoes 11.7074
lfemur -13.084 6.65204 -17.926
ltibia 17.4887
lfoot -9.93398 3.9687
ltoes 1.09448
512
root 0.455753 17.7371 7.13918 8.37675 -1.46351 -1.41429
lowerback -2.12332 -0.15333 -0.402465
upperback 2.93858 -0.241571 1.4017
thorax 4.22607 -0.15736 1.65772
lowerneck -11.3172 0.512541 -1.66564
upperneck 38.2471 0.835436 0.984866
head 15.2539 0.238536 0.845533
rclavicle 2.78299e-015 1.98785e-015
rhumerus -26.5942 -17.9427 -78.911
rradius 21.7688
rwrist 38.8868
rhand -15.0852 -25.5807
rfingers 7.12502
rthumb 11.0825 -55.2681
lclavicle 2.78299e-015 1.98785e-015
lhumerus -22.8687 3.89338 86.316
lradius 15.8707
lwrist 1.08647
lhand -25.3671 -5.61122
lfingers 7.12502
lthumb 1.15699 24.3654
rfemur -13.1999 -1.21055 19.3084
rtibia 19.3857
rfoot -12.7227 -2.23458
rtoes 11.6517
lfemur -13.0723 6.65026 -17.932
ltibia 17.4825
lfoot -9.92608 3.98386
ltoes 1.10525
513
root 0.456204 17.737 7.13749 8.36433 -1.4806 -1.40874
lowerback -2.12284 -0.151708 -0.406997
upperback 2.9324 -0.239134 1.40117
thorax 4.21931 -0.156216 1.65984
lowerneck -11.3189 0.514114 -1.67667
upperneck 38.2624 0.840047 0.987116
head 15.2618 0.239018 0.849371
rclavicle -8.94531e-016 -6.95746e-015
rhumerus -26.5972 -17.9562 -78.8906
rradius 21.755
rwrist 38.9051
rhand -15.0847 -25.5795
rfingers 7.12502
rthumb 11.0831 -55.2669
lclavicle -8.94531e-016 -6.95746e-015
lhumerus -22.876 3.90874 86.2962
lradius 15.8582
lwrist 1.08433
lhand -25.2989 -5.47548
lfingers 7.12502
lthumb 1.22291 24.5008
rfemur -13.1973 -1.21913 19.3006
rtibia 19.3894
rfoot -12.7239 -2.21976
rtoes 11.5759
lfemur -13.0596 6.65375 -17.9398
ltibia 17.4783
lfoot -9.92128 3.9931
ltoes 1.11185
514
root 0.456665 17.7368 7.13587 8.34981 -1.49593 -1.40166
lowerback -2.12062 -0.150513 -0.412091
upperback 2.92548 -0.237227 1.40056
thorax 4.21082 -0.155339 1.66215
lowerneck -11.3132 0.515891 -1.69164
upperneck 38.2728 0.843988 0.994403
head 15.2654 0.239385 0.855833
rclavicle 6.01324e-015 -9.93923e-015
rhumerus -26.6065 -17.9623 -78.8701
rradius 21.7471
rwrist 38.9179
rhand -15.0861 -25.5786
rfingers 7.12502
rthumb 11.0817 -55.2661
lclavicle 6.01324e-015 -9.93923e-015
lhumerus -22.8884 3.93636 86.2732
lradius 15.8454
lwrist 1.06665
lhand -25.2157 -5.30794
lfingers 7.12502
lthumb 1.30326 24.6678
rfemur -13.1922 -1.22908 19.2908
rtibia 19.3938
rfoot -12.7271 -2.20494
rtoes 11.4965
lfemur -13.0447 6.66103 -17.9492
ltibia 17.4749
lfoot -9.91783 3.99761
ltoes 1.10711
515
root 0.457097 17.7367 7.13422 8.33861 -1.50964 -1.40248
lowerback -2.1217 -0.149864 -0.408873
upperback 2.91838 -0.236502 1.40248
thorax 4.20402 -0.154839 1.66236
lowerneck -11.3027 0.518833 -1.70743
upperneck 38.2761 0.849666 1.00197
head 15.2643 0.240475 0.86271
rclavicle -4.22417e-015 4.57205e-015
rhumerus -26.6152 -17.9628 -78.8516
rradius 21.7425
rwrist 38.929
rhand -15.0871 -25.5772
rfingers 7.12502
rthumb 11.0807 -55.2646
lclavicle -4.22417e-015 4.57205e-015
lhumerus -22.9011 3.9704 86.2486
lradius 15.8325
lwrist 1.04448
lhand -25.1084 -5.10021
lfingers 7.12502
lthumb 1.40686 24.8749
rfemur -13.1911 -1.23514 19.2898
rtibia 19.3992
rfoot -12.7303 -2.19323
rtoes 11.4307
lfemur -13.0339 6.66934 -17.9499
ltibia 17.4724
lfoot -9.91478 4.00045
ltoes 1.10041
516
root 0.457509 17.7365 7.13251 8.32727 -1.52215 -1.40115
lowerback -2.12187 -0.150046 -0.407487
upperback 2.91047 -0.236791 1.40422
thorax 4.19591 -0.154887 1.66333
lowerneck -11.2877 0.523437 -1.72278
upperneck 38.2751 0.857687 1.00934
head 15.2599 0.242637 0.869709
rclavicle -3.23025e-015 -6.36111e-015
rhumerus -26.6253 -17.9557 -78.8339
rradius 21.7401
rwrist 38.9359
rhand -15.0867 -25.5733
rfingers 7.12502
rthumb 11.0811 -55.2608
lclavicle -3.23025e-015 -6.36111e-015
lhumerus -22.9187 4.00987 86.2214
lradius 15.8187
lwrist 1.00276
lhand -25.059 -4.98556
lfingers 7.12502
lthumb 1.45456 24.9892
rfemur -13.1907 -1.24076 19.2861
rtibia 19.4059
rfoot -12.7337 -2.17976
rtoes 11.4001
lfemur -13.0234 6.67985 -17.9528
ltibia 17.4703
lfoot -9.91342 3.99925
ltoes 1.09889
517
root 0.457901 17.7363 7.13072 8.31512 -1.53233 -1.39665
lowerback -2.12113 -0.152155 -0.409993
upperback 2.90324 -0.239513 1.40643
thorax 4.18809 -0.15628 1.66684
lowerneck -11.2709 0.529329 -1.73646
upperneck 38.2692 0.868702 1.01247
head 15.2527 0.245781 0.875007
rclavicle 3.13086e-015 8.54774e-015
rhumerus -26.6323 -17.9376 -78.8185
rradius 21.7376
rwrist 38.9379
rhand -15.0875 -25.5691
rfingers 7.12502
rthumb 11.0803 -55.2566
lclavicle 3.13086e-015 8.54774e-015
lhumerus -22.932 4.05574 86.1919
lradius 15.7992
lwrist 0.944878
lhand -25.0369 -4.93038
lfingers 7.12502
lthumb 1.47592 25.0443
rfemur -13.1902 -1.24448 19.2789
rtibia 19.4138
rfoot -12.7361 -2.16879
rtoes 11.3827
lfemur -13.0129 6.68775 -17.9585
ltibia 17.4691
lfoot -9.91231 3.9967
ltoes 1.11203
518
root 0.458232 17.7361 7.12881 8.30255 -1.53925 -1.39192
lowerback -2.12071 -0.154839 -0.410831
upperback 2.89779 -0.243048 1.40747
thorax 4.18232 -0.158026 1.66818
lowerneck -11.2533 0.536284 -1.74889
upperneck 38.2579 0.88078 1.0161
head 15.2426 0.249678 0.880386
rclavicle -4.72114e-015 7.7526e-015
rhumerus -26.6365 -17.9168 -78.8067
rradius 21.7385
rwrist 38.9363
rhand -15.0831 -25.5676
rfingers 7.12502
rthumb 11.0846 -55.2548
lclavicle -4.72114e-015 7.7526e-015
lhumerus -22.9415 4.09866 86.1599
lradius 15.779
lwrist 0.880452
lhand -25.0412 -4.94304
lfingers 7.12502
lthumb 1.47182 25.0316
rfemur -13.1901 -1.24618 19.2717
rtibia 19.4236
rfoot -12.7381 -2.16144
rtoes 11.3742
lfemur -13.0024 6.69307 -17.9637
ltibia 17.4669
lfoot -9.91106 3.99305
ltoes 1.12756
519
root 0.458504 17.736 7.12684 8.28965 -1.54503 -1.38543
lowerback -2.12033 -0.157569 -0.413243
upperback 2.89224 -0.246567 1.40827
thorax 4.17646 -0.159806 1.67013
lowerneck -11.2354 0.544619 -1.75575
upperneck 38.2454 0.896183 1.01242
head 15.2318 0.254834 0.882179
rclavicle 4.96962e-016 2.38542e-015
rhumerus -26.6423 -17.8891 -78.7961
rradius 21.7428
rwrist 38.9266
rhand -15.0752 -25.5638
rfingers 7.12502
rthumb 11.0922 -55.2506
lclavicle 4.96962e-016 2.38542e-015
lhumerus -22.9471 4.13529 86.1281
lradius 15.7523
lwrist 0.818811
lhand -25.0769 -5.02947
lfingers 7.12502
lthumb 1.43728 24.9454
rfemur -13.19 -1.24474 19.2628
rtibia 19.4341
rfoot -12.7398 -2.15717
rtoes 11.3643
lfemur -12.9919 6.69501 -17.9705
ltibia 17.4641
lfoot -9.90861 3.9908
ltoes 1.1522
